<?xml version="1.0" encoding="UTF-8"?>
<svg version="1.1" xmlns="http://www.w3.org/2000/svg" width="225" height="225">
<path d="M0 0 C74.25 0 148.5 0 225 0 C225 74.25 225 148.5 225 225 C150.75 225 76.5 225 0 225 C0 150.75 0 76.5 0 0 Z " fill="#004B8E" transform="translate(0,0)"/>
<path d="M0 0 C6.49202841 -0.07662893 12.98393838 -0.12884067 19.47631836 -0.16479492 C21.68078978 -0.17979791 23.88523178 -0.20020687 26.08959961 -0.22631836 C29.2746511 -0.26307727 32.4593049 -0.27981175 35.64453125 -0.29296875 C37.10147148 -0.31619453 37.10147148 -0.31619453 38.58784485 -0.33988953 C48.80714431 -0.34235258 58.22018863 1.50730669 65.80859375 8.71875 C71.33831188 14.51288292 73.98055016 20.36409808 74.4375 28.375 C74.23497609 34.41873994 72.3349701 41.6650299 68 46 C68.79664063 46.31453125 69.59328125 46.6290625 70.4140625 46.953125 C81.69464237 51.50927161 88.14039354 55.75447711 93.375 66.9375 C95.19144604 75.8380856 94.31226316 83.91193142 89.32421875 91.57421875 C85.34839847 96.58330306 81.53884185 99.53517085 75.55859375 101.80859375 C74.60046028 102.17605209 74.60046028 102.17605209 73.62297058 102.55093384 C71.42172707 103.38578393 69.21263353 104.19583232 67 105 C66.16523132 105.30396698 65.33046265 105.60793396 64.47039795 105.92111206 C58.89889428 107.93911835 53.31220528 109.91137839 47.71655273 111.86132812 C44.77662588 112.88752201 41.84046393 113.9240419 38.90429688 114.9609375 C37.02626035 115.61781307 35.1480129 116.27408596 33.26953125 116.9296875 C31.96022392 117.39361404 31.96022392 117.39361404 30.62446594 117.86691284 C29.81229111 118.14785797 29.00011627 118.4288031 28.16333008 118.71826172 C27.45356522 118.96663788 26.74380035 119.21501404 26.01252747 119.47091675 C24 120 24 120 20 120 C19.39414063 118.89785156 18.78828125 117.79570312 18.1640625 116.66015625 C17.31783077 115.12753656 16.47146932 113.59498848 15.625 112.0625 C15.23183594 111.34642578 14.83867188 110.63035156 14.43359375 109.89257812 C14.01464844 109.13525391 13.59570312 108.37792969 13.1640625 107.59765625 C12.50059814 106.3758667 12.50059814 106.3758667 11.82373047 105.12939453 C10.46531301 102.79844473 9.08002713 100.64779434 7.5378418 98.44665527 C-0.13259161 87.13682131 -1.37632508 78.18823101 -0.9765625 64.74609375 C-0.9578528 62.86470854 -0.94364592 60.98327377 -0.9336853 59.1018219 C-0.89595934 54.209762 -0.79814844 49.32079157 -0.68664551 44.42993164 C-0.58334175 39.41530125 -0.53846458 34.40015907 -0.48828125 29.38476562 C-0.38184349 19.58850489 -0.21175194 9.79451177 0 0 Z " fill="#014B8E" transform="translate(71,53)"/>
<path d="M0 0 C6.661875 -0.0825 13.32375 -0.165 20.1875 -0.25 C23.29901489 -0.30462402 23.29901489 -0.30462402 26.47338867 -0.36035156 C50.34117513 -0.60622394 50.34117513 -0.60622394 59.125 7.375 C64.93178401 13.72334935 65.58143869 19.957673 65.42578125 28.28125 C64.84796468 33.32786811 63.28450582 37.12335792 60 41 C56.93228809 43.04514127 56.34431952 43.24827274 52.89575195 43.22705078 C52.07512772 43.22689972 51.25450348 43.22674866 50.40901184 43.22659302 C49.0870002 43.21110916 49.0870002 43.21110916 47.73828125 43.1953125 C46.83248825 43.1924826 45.92669525 43.18965271 44.99345398 43.18673706 C42.09966842 43.17553964 39.20619206 43.15043589 36.3125 43.125 C34.35091593 43.11496963 32.389327 43.10584388 30.42773438 43.09765625 C25.6183704 43.07560173 20.80923763 43.04107489 16 43 C16.07855225 43.6798999 16.15710449 44.3597998 16.23803711 45.06030273 C18.14717404 64.02117405 18.14717404 64.02117405 14.54394531 69.02001953 C10.95060696 72.08660067 4.88296419 76 0 76 C0 50.92 0 25.84 0 0 Z " fill="#014A8D" transform="translate(75,57)"/>
<path d="M0 0 C6.49202841 -0.07662893 12.98393838 -0.12884067 19.47631836 -0.16479492 C21.68078978 -0.17979791 23.88523178 -0.20020687 26.08959961 -0.22631836 C29.2746511 -0.26307727 32.4593049 -0.27981175 35.64453125 -0.29296875 C37.10147148 -0.31619453 37.10147148 -0.31619453 38.58784485 -0.33988953 C48.80714431 -0.34235258 58.22018863 1.50730669 65.80859375 8.71875 C71.33831188 14.51288292 73.98055016 20.36409808 74.4375 28.375 C74.23497609 34.41873994 72.3349701 41.6650299 68 46 C68.79664063 46.31453125 69.59328125 46.6290625 70.4140625 46.953125 C81.69464237 51.50927161 88.14039354 55.75447711 93.375 66.9375 C95.19144604 75.8380856 94.31226316 83.91193142 89.32421875 91.57421875 C85.34839847 96.58330306 81.53884185 99.53517085 75.55859375 101.80859375 C74.60046028 102.17605209 74.60046028 102.17605209 73.62297058 102.55093384 C71.42172707 103.38578393 69.21263353 104.19583232 67 105 C66.16523132 105.30396698 65.33046265 105.60793396 64.47039795 105.92111206 C58.89889428 107.93911835 53.31220528 109.91137839 47.71655273 111.86132812 C44.77662588 112.88752201 41.84046393 113.9240419 38.90429688 114.9609375 C37.02626035 115.61781307 35.1480129 116.27408596 33.26953125 116.9296875 C31.96022392 117.39361404 31.96022392 117.39361404 30.62446594 117.86691284 C29.81229111 118.14785797 29.00011627 118.4288031 28.16333008 118.71826172 C27.45356522 118.96663788 26.74380035 119.21501404 26.01252747 119.47091675 C24 120 24 120 20 120 C19.39414063 118.89785156 18.78828125 117.79570312 18.1640625 116.66015625 C17.31783077 115.12753656 16.47146932 113.59498848 15.625 112.0625 C15.23183594 111.34642578 14.83867188 110.63035156 14.43359375 109.89257812 C14.01464844 109.13525391 13.59570312 108.37792969 13.1640625 107.59765625 C12.50059814 106.3758667 12.50059814 106.3758667 11.82373047 105.12939453 C10.46531301 102.79844473 9.08002713 100.64779434 7.5378418 98.44665527 C-0.13259161 87.13682131 -1.37632508 78.18823101 -0.9765625 64.74609375 C-0.9578528 62.86470854 -0.94364592 60.98327377 -0.9336853 59.1018219 C-0.89595934 54.209762 -0.79814844 49.32079157 -0.68664551 44.42993164 C-0.58334175 39.41530125 -0.53846458 34.40015907 -0.48828125 29.38476562 C-0.38184349 19.58850489 -0.21175194 9.79451177 0 0 Z M4 4 C4 29.08 4 54.16 4 80 C12.0624238 75.609055 12.0624238 75.609055 20 71 C20.68802255 68.40247535 20.68802255 68.40247535 20.48828125 65.45703125 C20.47216797 64.38388672 20.45605469 63.31074219 20.43945312 62.20507812 C20.39755859 61.08552734 20.35566406 59.96597656 20.3125 58.8125 C20.28994141 57.68134766 20.26738281 56.55019531 20.24414062 55.38476562 C20.18514811 52.58852024 20.1028824 49.79491903 20 47 C21.82374146 47.03927612 21.82374146 47.03927612 23.68432617 47.0793457 C28.20350681 47.1699776 32.72260744 47.22729648 37.24243164 47.2746582 C39.19699623 47.29977281 41.15146717 47.33387131 43.10571289 47.37719727 C45.91836668 47.43798434 48.72977702 47.46623983 51.54296875 47.48828125 C52.41398727 47.51408768 53.2850058 47.5398941 54.18241882 47.56648254 C58.60171585 47.5685167 60.40353572 47.47095459 63.97949219 44.64746094 C69.75153883 37.08437807 69.88374931 30.2742887 69 21 C67.33736841 14.88277058 62.08669919 10.45193138 57 7 C46.99941506 2.34410943 35.04054393 3.6724774 24.3125 3.8125 C17.609375 3.874375 10.90625 3.93625 4 4 Z M49.875 57.5 C48.823125 58.10070312 47.77125 58.70140625 46.6875 59.3203125 C44.54083946 60.55372381 42.41170733 61.81810919 40.30053711 63.11132812 C37 65 37 65 33.32641602 66.49804688 C29.35931004 68.30076042 26.87453718 69.70422349 24 73 C21.8863085 79.89156033 22.78347743 87.40937461 23.1875 94.5 C23.25276545 96.48679052 23.31207137 98.47378631 23.36523438 100.4609375 C23.50797412 105.3123838 23.731867 110.15393235 24 115 C28.81636085 113.40294108 33.6319895 111.80369765 38.44702148 110.20263672 C40.07671657 109.66105586 41.7065924 109.12001852 43.33666992 108.57958984 C48.10202478 106.99947526 52.86358565 105.40868021 57.62020874 103.80245972 C59.21638625 103.26423261 60.81342591 102.72855605 62.4112854 102.19534302 C64.73053474 101.41933407 67.04532313 100.63119752 69.359375 99.83984375 C70.39825111 99.49552811 70.39825111 99.49552811 71.45811462 99.14425659 C79.33725591 96.41653601 84.8146554 91.95718394 88.5625 84.5 C91.11146958 77.67156773 90.49320963 71.86203212 87.9609375 65.1015625 C84.58793808 57.72484018 79.20453535 55.06498029 72 52 C63.03329212 49.01109737 57.61295968 52.95371673 49.875 57.5 Z " fill="#F4F7F9" transform="translate(71,53)"/>
<path d="M0 0 C0 11.22 0 22.44 0 34 C-3.39627356 29.47163526 -6.31064873 24.76888696 -9.25 19.9375 C-10.10078125 18.57141602 -10.10078125 18.57141602 -10.96875 17.17773438 C-11.49984375 16.30310547 -12.0309375 15.42847656 -12.578125 14.52734375 C-13.06700195 13.73062256 -13.55587891 12.93390137 -14.05957031 12.11303711 C-15 10 -15 10 -14 7 C-11.34765625 5.17578125 -11.34765625 5.17578125 -8.0625 3.3125 C-6.98097656 2.68988281 -5.89945313 2.06726563 -4.78515625 1.42578125 C-2 0 -2 0 0 0 Z " fill="#084D8F" transform="translate(91,129)"/>
<path d="M0 0 C9.57 0 19.14 0 29 0 C26.21707934 2.78292066 23.89276498 4.38927683 20.52734375 6.35546875 C18.93116211 7.28842773 18.93116211 7.28842773 17.30273438 8.24023438 C16.19220703 8.88283203 15.08167969 9.52542969 13.9375 10.1875 C12.82310547 10.84169922 11.70871094 11.49589844 10.56054688 12.16992188 C2.25523006 17 2.25523006 17 0 17 C0 11.39 0 5.78 0 0 Z " fill="#02498D" transform="translate(95,104)"/>
</svg>
